<mxfile host="Electron" agent="Mozilla/5.0 (Windows NT 10.0; Win64; x64) AppleWebKit/537.36 (KHTML, like Gecko) draw.io/28.0.4 Chrome/138.0.7204.97 Electron/37.2.1 Safari/537.36" version="28.0.4">
  <diagram name="Secuencia Alta Cliente" id="seq1">
    <mxGraphModel dx="1852" dy="516" grid="1" gridSize="10" guides="1" tooltips="1" connect="1" arrows="1" fold="1" page="1" pageScale="1" pageWidth="827" pageHeight="1169" math="0" shadow="0">
      <root>
        <mxCell id="0" />
        <mxCell id="1" parent="0" />
        <mxCell id="2" value="Usuario" style="shape=uml.lifeline;html=1;" parent="1" vertex="1">
          <mxGeometry x="150" y="100" width="80" height="400" as="geometry" />
        </mxCell>
        <mxCell id="3" value="AppGUI" style="shape=uml.lifeline;html=1;" parent="1" vertex="1">
          <mxGeometry x="294" y="100" width="120" height="400" as="geometry" />
        </mxCell>
        <mxCell id="4" value="ClienteController" style="shape=uml.lifeline;html=1;" parent="1" vertex="1">
          <mxGeometry x="490" y="100" width="110" height="400" as="geometry" />
        </mxCell>
        <mxCell id="5" value="SQLite" style="shape=uml.lifeline;html=1;" parent="1" vertex="1">
          <mxGeometry x="670" y="100" width="130" height="400" as="geometry" />
        </mxCell>
        <mxCell id="10" value="click:&amp;nbsp;&lt;div&gt;Dar de alta&lt;/div&gt;" style="endArrow=block;html=1;" parent="1" source="2" target="3" edge="1">
          <mxGeometry x="-1" y="-81" relative="1" as="geometry">
            <mxPoint x="-40" y="-11" as="offset" />
          </mxGeometry>
        </mxCell>
        <mxCell id="12" value="alta_cliente(cliente)" style="endArrow=block;html=1;" parent="1" source="3" target="4" edge="1">
          <mxGeometry x="-1" y="-117" relative="1" as="geometry">
            <mxPoint x="-60" y="-17" as="offset" />
          </mxGeometry>
        </mxCell>
        <mxCell id="13" value="INSERT INTO&amp;nbsp;&lt;div&gt;clientes (...)&lt;/div&gt;" style="endArrow=block;html=1;" parent="1" source="4" target="5" edge="1">
          <mxGeometry x="1" y="-92" relative="1" as="geometry">
            <mxPoint x="60" y="-22" as="offset" />
          </mxGeometry>
        </mxCell>
        <mxCell id="cpOGLw9ZjXJrYM3L4FpB-24" value="&lt;span style=&quot;text-wrap-mode: wrap;&quot;&gt;ClienteController.&lt;/span&gt;&lt;div style=&quot;text-wrap-mode: wrap;&quot;&gt;alta_cliente(cliente)&lt;/div&gt;" style="text;html=1;align=center;verticalAlign=middle;resizable=0;points=[];autosize=1;strokeColor=none;fillColor=none;" parent="1" vertex="1">
          <mxGeometry x="480" y="330" width="130" height="40" as="geometry" />
        </mxCell>
        <mxCell id="cpOGLw9ZjXJrYM3L4FpB-25" value="&lt;div style=&quot;text-wrap-mode: wrap;&quot;&gt;instancia&lt;/div&gt;&lt;div style=&quot;text-wrap-mode: wrap;&quot;&gt;Cliente&lt;/div&gt;" style="text;html=1;align=center;verticalAlign=middle;resizable=0;points=[];autosize=1;strokeColor=none;fillColor=none;" parent="1" vertex="1">
          <mxGeometry x="319" y="340" width="70" height="40" as="geometry" />
        </mxCell>
        <mxCell id="j7dQf-AQSFMqPX9-jaDc-18" value="" style="edgeStyle=orthogonalEdgeStyle;rounded=0;orthogonalLoop=1;jettySize=auto;html=1;" edge="1" parent="1" source="j7dQf-AQSFMqPX9-jaDc-13" target="2">
          <mxGeometry relative="1" as="geometry" />
        </mxCell>
        <mxCell id="j7dQf-AQSFMqPX9-jaDc-13" value="se inicia app&lt;div&gt;&lt;div style=&quot;color: rgb(204, 204, 204); background-color: rgb(31, 31, 31); font-family: Consolas, &amp;quot;Courier New&amp;quot;, monospace; font-size: 14px; line-height: 19px; white-space: pre;&quot;&gt;&lt;span style=&quot;color: #9cdcfe;&quot;&gt;controlador&lt;/span&gt; &lt;/div&gt;&lt;/div&gt;&lt;div style=&quot;color: rgb(204, 204, 204); background-color: rgb(31, 31, 31); font-family: Consolas, &amp;quot;Courier New&amp;quot;, monospace; font-size: 14px; line-height: 19px; white-space: pre;&quot;&gt;AppGUI&lt;/div&gt;" style="whiteSpace=wrap;html=1;aspect=fixed;" vertex="1" parent="1">
          <mxGeometry x="-10" y="250" width="100" height="100" as="geometry" />
        </mxCell>
      </root>
    </mxGraphModel>
  </diagram>
</mxfile>
